#Comment line ignore any data following # character 
#Hierarchical Translation and Rotation (.htr) file 
[Header]	
#Header keywords are followed by a single value 
FileType HTR		#Single word string
DataType HTRS		#Translation followed by rotation and scale data
FileVersion 1		#integer
NumSegments 84		#integer
NumFrames 2		#integer
DataFrameRate 30		#integer, data frame rate in this file
EulerRotationOrder ZYX
CalibrationUnits mm
RotationUnits Degrees
GlobalAxisofGravity Y
BoneLengthAxis Y
ScaleFactor 1.00
[SegmentNames&Hierarchy]
#CHILD	PARENT
MASTER GLOBAL
root MASTER
chest root
L_mid_tent01 root
R_mid_tent01 root
spine01 root
Bip01_Neck chest
L_humerus chest
R_humerus chest
weapon_bone chest
Bip01_Head Bip01_Neck
eye_left_bone Bip01_Head
eye_right_bone Bip01_Head
L_forearm L_humerus
L_front_hand L_forearm
L_weapon_bone L_forearm
L_front_hand01_01 L_front_hand
L_front_hand02_01 L_front_hand
L_front_hand03_01 L_front_hand
L_front_hand01_02 L_front_hand01_01
L_front_hand02_02 L_front_hand02_01
L_front_hand03_02 L_front_hand03_01
R_forearm R_humerus
R_front_hand R_forearm
R_weapon_bone R_forearm
R_front_hand01_01 R_front_hand
R_front_hand02_01 R_front_hand
R_front_hand03_01 R_front_hand
R_front_hand01_02 R_front_hand01_01
R_front_hand02_02 R_front_hand02_01
R_front_hand03_02 R_front_hand03_01
null_rope01_connect L_mid_tent01
Rope1_Seg01 null_rope01_connect
Rope1_Seg02 Rope1_Seg01
Rope1_Seg03 Rope1_Seg02
Rope1_Seg04 Rope1_Seg03
Rope1_Seg05 Rope1_Seg04
Rope1_Seg06 Rope1_Seg05
Rope1_Seg07 Rope1_Seg06
Rope1_Seg09 Rope1_Seg07
L_mid_hand01 Rope1_Seg09
L_mid_hand02 Rope1_Seg09
L_mid_hand03 Rope1_Seg09
null_rope02_connect R_mid_tent01
Rope2_Seg01 null_rope02_connect
Rope2_Seg02 Rope2_Seg01
Rope2_Seg03 Rope2_Seg02
Rope2_Seg04 Rope2_Seg03
Rope2_Seg05 Rope2_Seg04
Rope2_Seg06 Rope2_Seg05
Rope2_Seg07 Rope2_Seg06
Rope2_Seg09 Rope2_Seg07
R_mid_hand01 Rope2_Seg09
R_mid_hand02 Rope2_Seg09
R_mid_hand03 Rope2_Seg09
spine02 spine01
spine03 spine02
pelvis spine03
null_rope03_connect pelvis
null_rope04_connect pelvis
Rope3_Seg01 null_rope03_connect
Rope3_Seg02 Rope3_Seg01
Rope3_Seg03 Rope3_Seg02
Rope3_Seg04 Rope3_Seg03
Rope3_Seg05 Rope3_Seg04
Rope3_Seg06 Rope3_Seg05
Rope3_Seg07 Rope3_Seg06
Rope3_Seg08 Rope3_Seg07
Rope3_Seg09 Rope3_Seg08
R_rear_hand01 Rope3_Seg09
R_rear_hand02 Rope3_Seg09
R_rear_hand03 Rope3_Seg09
Rope4_Seg01 null_rope04_connect
Rope4_Seg02 Rope4_Seg01
Rope4_Seg03 Rope4_Seg02
Rope4_Seg04 Rope4_Seg03
Rope4_Seg05 Rope4_Seg04
Rope4_Seg06 Rope4_Seg05
Rope4_Seg07 Rope4_Seg06
Rope4_Seg08 Rope4_Seg07
Rope4_Seg09 Rope4_Seg08
L_rear_hand01 Rope4_Seg09
L_rear_hand02 Rope4_Seg09
L_rear_hand03 Rope4_Seg09
[BasePosition]
#SegmentName Tx, Ty, Tz, Rx, Ry, Rz, BoneLength
MASTER 0.000000 0.000000 0.000000 -90.000000 0.000000 0.000000 10.000000 
root 0.000000 0.000000 0.000000 0.000000 0.000000 0.000000 10.000000 
chest 0.000000 0.000000 0.000000 0.000000 0.000000 0.000000 10.000000 
L_mid_tent01 0.000000 0.000000 0.000000 0.000000 0.000000 0.000000 10.000000 
R_mid_tent01 0.000000 0.000000 0.000000 0.000000 0.000000 0.000000 10.000000 
spine01 0.000000 0.000000 0.000000 0.000000 0.000000 0.000000 10.000000 
Bip01_Neck 0.000000 0.000000 0.000000 0.000000 0.000000 0.000000 10.000000 
L_humerus 0.000000 0.000000 0.000000 0.000000 0.000000 0.000000 10.000000 
R_humerus 0.000000 0.000000 0.000000 0.000000 0.000000 0.000000 10.000000 
weapon_bone 0.000000 0.000000 0.000000 0.000000 0.000000 0.000000 10.000000 
Bip01_Head 0.000000 0.000000 0.000000 0.000000 0.000000 0.000000 10.000000 
eye_left_bone 0.000000 0.000000 0.000000 0.000000 0.000000 0.000000 10.000000 
eye_right_bone 0.000000 0.000000 0.000000 0.000000 0.000000 0.000000 10.000000 
L_forearm 0.000000 0.000000 0.000000 0.000000 0.000000 0.000000 10.000000 
L_front_hand 0.000000 0.000000 0.000000 0.000000 0.000000 0.000000 10.000000 
L_weapon_bone 0.000000 0.000000 0.000000 0.000000 0.000000 0.000000 10.000000 
L_front_hand01_01 0.000000 0.000000 0.000000 0.000000 0.000000 0.000000 10.000000 
L_front_hand02_01 0.000000 0.000000 0.000000 0.000000 0.000000 0.000000 10.000000 
L_front_hand03_01 0.000000 0.000000 0.000000 0.000000 0.000000 0.000000 10.000000 
L_front_hand01_02 0.000000 0.000000 0.000000 0.000000 0.000000 0.000000 10.000000 
L_front_hand02_02 0.000000 0.000000 0.000000 0.000000 0.000000 0.000000 10.000000 
L_front_hand03_02 0.000000 0.000000 0.000000 0.000000 0.000000 0.000000 10.000000 
R_forearm 0.000000 0.000000 0.000000 0.000000 0.000000 0.000000 10.000000 
R_front_hand 0.000000 0.000000 0.000000 0.000000 0.000000 0.000000 10.000000 
R_weapon_bone 0.000000 0.000000 0.000000 0.000000 0.000000 0.000000 10.000000 
R_front_hand01_01 0.000000 0.000000 0.000000 0.000000 0.000000 0.000000 10.000000 
R_front_hand02_01 0.000000 0.000000 0.000000 0.000000 0.000000 0.000000 10.000000 
R_front_hand03_01 0.000000 0.000000 0.000000 0.000000 0.000000 0.000000 10.000000 
R_front_hand01_02 0.000000 0.000000 0.000000 0.000000 0.000000 0.000000 10.000000 
R_front_hand02_02 0.000000 0.000000 0.000000 0.000000 0.000000 0.000000 10.000000 
R_front_hand03_02 0.000000 0.000000 0.000000 0.000000 0.000000 0.000000 10.000000 
null_rope01_connect 0.000000 0.000000 0.000000 0.000000 0.000000 0.000000 10.000000 
Rope1_Seg01 0.000000 0.000000 0.000000 0.000000 0.000000 0.000000 10.000000 
Rope1_Seg02 0.000000 0.000000 0.000000 0.000000 0.000000 0.000000 10.000000 
Rope1_Seg03 0.000000 0.000000 0.000000 0.000000 0.000000 0.000000 10.000000 
Rope1_Seg04 0.000000 0.000000 0.000000 0.000000 0.000000 0.000000 10.000000 
Rope1_Seg05 0.000000 0.000000 0.000000 0.000000 0.000000 0.000000 10.000000 
Rope1_Seg06 0.000000 0.000000 0.000000 0.000000 0.000000 0.000000 10.000000 
Rope1_Seg07 0.000000 0.000000 0.000000 0.000000 0.000000 0.000000 10.000000 
Rope1_Seg09 0.000000 0.000000 0.000000 0.000000 0.000000 0.000000 10.000000 
L_mid_hand01 0.000000 0.000000 0.000000 0.000000 0.000000 0.000000 10.000000 
L_mid_hand02 0.000000 0.000000 0.000000 0.000000 0.000000 0.000000 10.000000 
L_mid_hand03 0.000000 0.000000 0.000000 0.000000 0.000000 0.000000 10.000000 
null_rope02_connect 0.000000 0.000000 0.000000 0.000000 0.000000 0.000000 10.000000 
Rope2_Seg01 0.000000 0.000000 0.000000 0.000000 0.000000 0.000000 10.000000 
Rope2_Seg02 0.000000 0.000000 0.000000 0.000000 0.000000 0.000000 10.000000 
Rope2_Seg03 0.000000 0.000000 0.000000 0.000000 0.000000 0.000000 10.000000 
Rope2_Seg04 0.000000 0.000000 0.000000 0.000000 0.000000 0.000000 10.000000 
Rope2_Seg05 0.000000 0.000000 0.000000 0.000000 0.000000 0.000000 10.000000 
Rope2_Seg06 0.000000 0.000000 0.000000 0.000000 0.000000 0.000000 10.000000 
Rope2_Seg07 0.000000 0.000000 0.000000 0.000000 0.000000 0.000000 10.000000 
Rope2_Seg09 0.000000 0.000000 0.000000 0.000000 0.000000 0.000000 10.000000 
R_mid_hand01 0.000000 0.000000 0.000000 0.000000 0.000000 0.000000 10.000000 
R_mid_hand02 0.000000 0.000000 0.000000 0.000000 0.000000 0.000000 10.000000 
R_mid_hand03 0.000000 0.000000 0.000000 0.000000 0.000000 0.000000 10.000000 
spine02 0.000000 0.000000 0.000000 0.000000 0.000000 0.000000 10.000000 
spine03 0.000000 0.000000 0.000000 0.000000 0.000000 0.000000 10.000000 
pelvis 0.000000 0.000000 0.000000 0.000000 0.000000 0.000000 10.000000 
null_rope03_connect 0.000000 0.000000 0.000000 0.000000 0.000000 0.000000 10.000000 
null_rope04_connect 0.000000 0.000000 0.000000 0.000000 0.000000 0.000000 10.000000 
Rope3_Seg01 0.000000 0.000000 0.000000 0.000000 0.000000 0.000000 10.000000 
Rope3_Seg02 0.000000 0.000000 0.000000 0.000000 0.000000 0.000000 10.000000 
Rope3_Seg03 0.000000 0.000000 0.000000 0.000000 0.000000 0.000000 10.000000 
Rope3_Seg04 0.000000 0.000000 0.000000 0.000000 0.000000 0.000000 10.000000 
Rope3_Seg05 0.000000 0.000000 0.000000 0.000000 0.000000 0.000000 10.000000 
Rope3_Seg06 0.000000 0.000000 0.000000 0.000000 0.000000 0.000000 10.000000 
Rope3_Seg07 0.000000 0.000000 0.000000 0.000000 0.000000 0.000000 10.000000 
Rope3_Seg08 0.000000 0.000000 0.000000 0.000000 0.000000 0.000000 10.000000 
Rope3_Seg09 0.000000 0.000000 0.000000 0.000000 0.000000 0.000000 10.000000 
R_rear_hand01 0.000000 0.000000 0.000000 0.000000 0.000000 0.000000 10.000000 
R_rear_hand02 0.000000 0.000000 0.000000 0.000000 0.000000 0.000000 10.000000 
R_rear_hand03 0.000000 0.000000 0.000000 0.000000 0.000000 0.000000 10.000000 
Rope4_Seg01 0.000000 0.000000 0.000000 0.000000 0.000000 0.000000 10.000000 
Rope4_Seg02 0.000000 0.000000 0.000000 0.000000 0.000000 0.000000 10.000000 
Rope4_Seg03 0.000000 0.000000 0.000000 0.000000 0.000000 0.000000 10.000000 
Rope4_Seg04 0.000000 0.000000 0.000000 0.000000 0.000000 0.000000 10.000000 
Rope4_Seg05 0.000000 0.000000 0.000000 0.000000 0.000000 0.000000 10.000000 
Rope4_Seg06 0.000000 0.000000 0.000000 0.000000 0.000000 0.000000 10.000000 
Rope4_Seg07 0.000000 0.000000 0.000000 0.000000 0.000000 0.000000 10.000000 
Rope4_Seg08 0.000000 0.000000 0.000000 0.000000 0.000000 0.000000 10.000000 
Rope4_Seg09 0.000000 0.000000 0.000000 0.000000 0.000000 0.000000 10.000000 
L_rear_hand01 0.000000 0.000000 0.000000 0.000000 0.000000 0.000000 10.000000 
L_rear_hand02 0.000000 0.000000 0.000000 0.000000 0.000000 0.000000 10.000000 
L_rear_hand03 0.000000 0.000000 0.000000 0.000000 0.000000 0.000000 10.000000 
#Beginning of Data. Separated by tabs
#Fr	Tx	Ty	Tz	Rx	Ry	Rz	SF
[MASTER]
40 -66.184967 4142.086426 483.531006 0.001660 0.001660 0.001660 4170.739258
41 -57.911911 4432.168945 423.089233 0.001660 0.001660 0.001660 4452.693359
[root]
40 37.201920 -117.646469 941.516724 -91.645935 -22.591263 -89.737106 949.567444
41 34.894352 -112.189636 963.293213 -91.656242 -20.488031 -89.688843 970.431824
[chest]
40 -84.512650 -34.090519 0.000000 3.046494 -9.792302 137.881714 91.129311
41 -84.512650 -34.090519 0.000000 2.256248 -8.676669 141.477173 91.129311
[L_mid_tent01]
40 27.299166 22.179253 -249.918732 -15.751525 24.822971 34.314743 252.381729
41 27.299168 22.179255 -249.918732 -16.669832 23.328794 31.474930 252.381729
[R_mid_tent01]
40 23.228794 24.509907 226.238495 -173.670135 -25.446625 39.093647 228.744751
41 23.228794 24.509907 226.238495 -172.474060 -24.631233 37.110073 228.744751
[spine01]
40 -0.361383 -0.195265 0.000000 -0.000001 -0.000007 22.052340 0.410763
41 -0.361383 -0.195265 0.000000 -0.000001 -0.000007 22.052340 0.410763
[Bip01_Neck]
40 165.484543 71.581718 0.000119 176.643677 -1.657967 43.431911 180.302734
41 165.484543 71.581718 0.000119 176.643677 -1.657967 43.431911 180.302734
[L_humerus]
40 -13.983130 -135.272980 -120.471481 15.468024 80.534149 105.841202 181.680161
41 -13.983130 -135.272980 -120.471481 10.584555 79.394272 100.932487 181.680161
[R_humerus]
40 -13.983309 -135.273102 125.287651 34.916885 -83.688850 60.295231 184.909012
41 -13.983309 -135.273102 125.287651 33.468605 -82.121193 61.801876 184.909012
[weapon_bone]
40 235.964890 -300.705902 0.000000 0.000000 -89.951546 -128.212341 382.234833
41 235.964890 -300.705902 0.000000 0.000000 -89.951546 -128.212341 382.234833
[Bip01_Head]
40 203.286453 162.408752 31.616489 14.385878 3.070239 -46.566738 262.109863
41 203.286484 162.408752 31.616488 9.851759 2.936844 -45.282230 262.109894
[eye_left_bone]
40 -24.626970 125.451866 -64.772606 0.000000 -90.000000 -99.840431 143.318359
41 -24.626970 125.451866 -64.772606 0.000000 -90.000000 -99.840431 143.318359
[eye_right_bone]
40 -24.626970 125.451866 64.327362 0.000000 -89.965736 80.156380 143.117676
41 -24.626970 125.451866 64.327362 0.000000 -89.965736 80.156380 143.117676
[L_forearm]
40 322.776093 0.000000 -0.000119 0.000007 0.002347 -89.636909 322.776093
41 322.776093 0.000000 -0.000119 0.000264 0.002332 -77.082169 322.776093
[L_front_hand]
40 241.149185 -0.042021 -3.300071 0.836591 -1.835726 -27.423458 241.171753
41 241.149185 -0.042021 -3.300071 0.836591 -1.835726 -27.423458 241.171753
[L_weapon_bone]
40 156.183838 0.000000 0.000000 0.000014 0.000007 0.000001 156.183838
41 156.183838 0.000000 0.000000 0.000014 0.000007 0.000001 156.183838
[L_front_hand01_01]
40 86.095154 20.947098 -0.655860 -0.366594 -0.477154 75.385574 88.609184
41 86.095154 20.947098 -0.655860 -0.366594 -0.477154 75.385574 88.609184
[L_front_hand02_01]
40 86.935165 -11.437475 24.513514 154.399796 -59.883835 -61.369587 91.046425
41 86.935165 -11.437475 24.513514 154.399796 -59.883835 -61.369587 91.046425
[L_front_hand03_01]
40 86.637497 -14.123976 -20.424902 -153.913849 58.118122 -62.702866 90.126129
41 86.637497 -14.123976 -20.424902 -153.913849 58.118130 -62.702866 90.126129
[L_front_hand01_02]
40 71.020905 -0.000179 0.000030 0.000334 -0.002323 -106.379684 71.020905
41 71.020905 -0.000179 0.000030 0.000334 -0.002323 -106.379684 71.020905
[L_front_hand02_02]
40 71.020927 -0.000119 0.000060 0.000334 -0.002323 -106.379684 71.020927
41 71.020927 -0.000119 0.000060 0.000334 -0.002323 -106.379684 71.020927
[L_front_hand03_02]
40 71.020905 -0.000060 0.000060 0.000334 -0.002323 -106.379684 71.020905
41 71.020905 -0.000060 0.000060 0.000334 -0.002323 -106.379684 71.020905
[R_forearm]
40 322.776428 -0.000060 0.000030 0.213125 -0.012344 -87.742233 322.776428
41 322.776428 -0.000060 0.000030 0.203404 -0.060974 -74.301575 322.776428
[R_front_hand]
40 238.847015 -0.006795 2.210259 42.936222 -10.646152 -26.312963 238.857239
41 238.847015 -0.006795 2.210259 42.936222 -10.646152 -26.312963 238.857239
[R_weapon_bone]
40 155.664093 0.002503 -0.000030 0.003487 0.001180 -90.988930 155.664078
41 155.664093 0.002503 -0.000030 0.003487 0.001180 -90.988930 155.664078
[R_front_hand01_01]
40 87.624611 14.231146 22.918642 -154.633499 -59.950619 61.746044 91.683487
41 87.624611 14.231146 22.918642 -154.633514 -59.950634 61.746063 91.683487
[R_front_hand02_01]
40 89.356956 14.367283 -19.491137 154.602661 58.302849 63.744389 92.579636
41 89.356956 14.367283 -19.491137 154.602661 58.302849 63.744389 92.579636
[R_front_hand03_01]
40 87.286232 -22.307278 -0.143439 0.162155 -0.423168 -75.767921 90.091743
41 87.286232 -22.307278 -0.143439 0.162155 -0.423168 -75.767921 90.091743
[R_front_hand01_02]
40 71.020905 0.000060 0.000119 0.002323 -0.000334 106.381714 71.020905
41 71.020905 0.000060 0.000119 0.002323 -0.000334 106.381714 71.020905
[R_front_hand02_02]
40 71.020844 -0.000030 -0.000119 0.002323 -0.000334 106.381714 71.020836
41 71.020844 -0.000030 -0.000119 0.002323 -0.000334 106.381714 71.020836
[R_front_hand03_02]
40 71.020905 0.000000 0.000030 0.002323 -0.000334 106.381714 71.020905
41 71.020905 0.000000 0.000030 0.002323 -0.000334 106.381714 71.020905
[null_rope01_connect]
40 328.732483 0.000000 -0.000238 -136.971725 -59.520443 -148.031418 328.732483
41 328.732483 0.000000 -0.000238 -139.544281 -60.255875 -144.696426 328.732483
[Rope1_Seg01]
40 -0.000032 0.000006 0.000127 -139.322937 43.180481 -122.756821 0.000131
41 -0.000032 0.000006 0.000130 -140.047989 40.082767 -122.540863 0.000134
[Rope1_Seg02]
40 139.999863 -0.000179 0.000000 26.595585 6.039142 -11.696476 139.999863
41 139.999863 -0.000179 0.000000 31.273838 4.949172 -10.192170 139.999863
[Rope1_Seg03]
40 139.999924 0.000060 -0.000060 124.281837 2.235422 -14.694576 139.999924
41 139.999924 0.000060 -0.000060 113.677261 0.164288 -12.274828 139.999924
[Rope1_Seg04]
40 139.999924 -0.000060 -0.000119 10.956280 -10.868157 5.667503 139.999924
41 139.999924 -0.000060 -0.000119 16.895988 -11.059084 3.574641 139.999924
[Rope1_Seg05]
40 139.999832 0.000119 -0.000060 -22.523815 6.556673 8.768777 139.999832
41 139.999832 0.000119 -0.000060 -16.388586 2.566077 8.537375 139.999832
[Rope1_Seg06]
40 139.999954 0.000119 -0.000060 -17.939249 5.147363 10.992397 139.999954
41 139.999954 0.000119 -0.000060 -17.849512 4.726158 11.245901 139.999954
[Rope1_Seg07]
40 139.999985 0.000060 0.000000 -5.553021 -0.545554 6.914917 139.999985
41 139.999985 0.000060 0.000000 -5.382498 -1.075359 7.370352 139.999985
[Rope1_Seg09]
40 121.602913 0.000119 -0.000089 -89.793175 -1.359789 0.847147 121.602913
41 121.602913 0.000119 -0.000089 -89.793175 -1.359789 0.847147 121.602913
[L_mid_hand01]
40 103.859421 1.038730 8.195221 130.544373 -67.584534 -38.866943 104.187431
41 103.859421 1.038730 8.195221 130.544373 -67.584534 -38.866943 104.187431
[L_mid_hand02]
40 105.572853 -4.139662 -10.864139 -168.923172 43.409309 -73.498886 106.211075
41 105.572853 -4.139662 -10.864139 -168.923172 43.409309 -73.498886 106.211075
[L_mid_hand03]
40 104.641464 17.579376 -3.913581 -6.012626 17.808172 74.893661 106.179977
41 104.641464 17.579376 -3.913581 -6.012627 17.808174 74.893669 106.179977
[null_rope02_connect]
40 328.732849 0.000179 -0.000119 -118.613411 64.903328 -10.419751 328.732849
41 328.732849 0.000179 -0.000119 -121.738754 65.386566 -13.220920 328.732849
[Rope2_Seg01]
40 0.000070 0.000026 0.000000 -174.539841 36.395905 -48.726360 0.000074
41 0.000071 0.000023 0.000000 -176.218903 35.261066 -48.890224 0.000074
[Rope2_Seg02]
40 139.999741 -0.000060 -0.000119 -34.750435 4.476490 14.415106 139.999756
41 139.999741 -0.000060 -0.000119 -36.878391 4.365567 15.230118 139.999756
[Rope2_Seg03]
40 140.000107 0.000030 0.000000 -19.302696 -6.609334 18.458111 140.000107
41 140.000107 0.000030 0.000000 -17.364519 -7.522159 17.172318 140.000107
[Rope2_Seg04]
40 139.999802 0.000000 -0.000060 -7.047422 -9.575080 12.547939 139.999802
41 139.999802 0.000000 -0.000060 -6.051551 -8.431159 10.646840 139.999802
[Rope2_Seg05]
40 139.999985 -0.000060 0.000119 -1.800683 5.459494 -0.000029 139.999985
41 139.999985 -0.000060 0.000119 -2.717448 4.060432 1.910237 139.999985
[Rope2_Seg06]
40 139.999893 -0.000030 -0.000119 -2.265288 8.398407 -1.558465 139.999893
41 139.999893 -0.000030 -0.000119 -3.159398 5.617679 1.184094 139.999893
[Rope2_Seg07]
40 139.999893 0.000060 -0.000060 -2.895170 4.595946 0.469701 139.999893
41 139.999893 0.000060 -0.000060 -2.975853 2.534754 2.073714 139.999893
[Rope2_Seg09]
40 121.338966 0.000089 -0.000060 33.793236 -1.359788 -0.847141 121.338966
41 121.338966 0.000089 -0.000060 33.793236 -1.359788 -0.847141 121.338966
[R_mid_hand01]
40 104.680779 11.144459 -10.335981 -16.212063 45.237247 70.462852 105.778534
41 104.680779 11.144459 -10.335981 -16.212063 45.237247 70.462852 105.778534
[R_mid_hand02]
40 104.070427 2.443552 8.231699 49.067368 -67.749771 39.286453 104.424065
41 104.070427 2.443552 8.231699 49.067368 -67.749771 39.286453 104.424065
[R_mid_hand03]
40 106.028137 -11.221827 -5.996406 -177.101105 15.551026 -76.585571 106.788818
41 106.028137 -11.221827 -5.996406 -177.101105 15.551026 -76.585571 106.788818
[spine02]
40 129.756927 0.001550 0.000119 0.389791 -4.041716 -13.339516 129.756927
41 129.756927 0.001550 0.000119 0.383636 -4.042375 -13.257929 129.756927
[spine03]
40 78.613922 0.081761 -4.898990 1.913726 3.821795 16.748533 78.766457
41 78.613914 0.081764 -4.898990 1.910845 3.824116 16.693459 78.766457
[pelvis]
40 169.435242 0.051022 0.000000 -0.061311 -0.179939 14.626286 169.435257
41 169.435242 0.051022 0.000000 -0.061139 -0.179998 14.516601 169.435257
[null_rope03_connect]
40 -1.257226 -2.466202 137.391083 0.000000 -89.600906 72.529282 137.418976
41 -1.257226 -2.466202 137.391083 0.000000 -89.572960 70.508286 137.418976
[null_rope04_connect]
40 -1.259640 -2.480268 -137.844437 0.000000 -89.600906 72.529282 137.872513
41 -1.259640 -2.480268 -137.844437 0.000000 -89.572960 70.508286 137.872513
[Rope3_Seg01]
40 0.000000 0.000000 0.000000 -127.159477 -25.875265 -89.417213 0.000000
41 0.000000 0.000000 0.000000 -127.290756 -17.314148 -90.934723 0.000000
[Rope3_Seg02]
40 139.999924 -0.000119 0.000060 -0.226896 -3.526325 2.279949 139.999924
41 139.999924 -0.000119 0.000060 -0.384176 -2.956284 1.530456 139.999924
[Rope3_Seg03]
40 139.999924 -0.000119 0.000119 -0.345824 -4.576775 2.995517 139.999924
41 139.999924 -0.000119 0.000119 -0.503358 -3.804214 1.943420 139.999924
[Rope3_Seg04]
40 139.999924 0.000119 0.000000 -1.049266 -6.310342 6.904223 139.999924
41 139.999924 0.000119 0.000000 -1.216848 -5.434146 5.409014 139.999924
[Rope3_Seg05]
40 139.999924 -0.000238 0.000060 -0.270249 -8.229351 0.333513 139.999924
41 139.999924 -0.000238 0.000060 -0.512518 -7.079214 0.221666 139.999924
[Rope3_Seg06]
40 139.999893 -0.000119 -0.000060 0.541153 -3.120973 -4.353108 139.999893
41 139.999893 -0.000119 -0.000060 0.568382 -2.334450 -6.409420 139.999893
[Rope3_Seg07]
40 139.999771 0.000060 -0.000119 0.629796 -2.054887 -1.097878 139.999771
41 139.999771 0.000060 -0.000119 0.548479 -1.654721 -2.237166 139.999771
[Rope3_Seg08]
40 139.999985 -0.000060 0.000000 0.626355 -1.221629 -0.603483 139.999985
41 139.999985 -0.000060 0.000000 0.566221 -1.041150 -1.165805 139.999985
[Rope3_Seg09]
40 90.185997 -0.000179 -0.000060 89.793228 -1.359877 -0.847183 90.185997
41 90.185997 -0.000179 -0.000060 89.793228 -1.359877 -0.847183 90.185997
[R_rear_hand01]
40 103.366196 -6.073594 -10.757982 -177.714203 24.565960 -73.910950 104.101845
41 103.366196 -6.073594 -10.757982 -177.714203 24.565960 -73.910950 104.101845
[R_rear_hand02]
40 100.509819 12.039542 -7.992327 -12.874829 36.868488 72.167213 101.543350
41 100.509819 12.039542 -7.992327 -12.874829 36.868488 72.167213 101.543350
[R_rear_hand03]
40 101.539970 5.215704 5.435467 71.484581 -71.816628 21.513813 101.819031
41 101.539970 5.215704 5.435467 71.484581 -71.816628 21.513813 101.819031
[Rope4_Seg01]
40 0.000010 0.000038 -0.000114 47.067070 3.423894 -121.255928 0.000121
41 0.000010 0.000038 -0.000114 46.045250 6.931265 -121.384171 0.000121
[Rope4_Seg02]
40 139.999985 0.000060 0.000119 -0.460878 4.736339 0.066745 139.999985
41 139.999985 0.000060 0.000119 -0.300844 4.881149 0.568015 139.999985
[Rope4_Seg03]
40 139.999924 0.000000 -0.000238 -0.319753 5.305683 0.115560 139.999924
41 139.999924 0.000000 -0.000238 -0.169431 5.479705 0.666944 139.999924
[Rope4_Seg04]
40 139.999985 0.000000 0.000119 -0.160543 10.774502 0.070965 139.999985
41 139.999985 0.000000 0.000119 0.119845 11.270640 1.096905 139.999985
[Rope4_Seg05]
40 139.999802 -0.000060 -0.000119 0.109229 1.658259 0.255501 139.999802
41 139.999802 -0.000060 -0.000119 0.135911 2.192104 0.553333 139.999802
[Rope4_Seg06]
40 139.999924 0.000000 0.000060 0.155359 -9.917434 0.345627 139.999924
41 139.999924 0.000000 0.000060 0.009855 -10.289322 -0.366684 139.999924
[Rope4_Seg07]
40 139.999802 0.000000 0.000000 0.442385 -5.099902 0.219590 139.999802
41 139.999802 0.000000 0.000000 0.340752 -5.346128 -0.157831 139.999802
[Rope4_Seg08]
40 139.999924 0.000000 0.000119 -1.233079 -2.405681 0.141335 139.999924
41 139.999924 0.000000 0.000119 -1.298835 -2.412456 -0.025409 139.999924
[Rope4_Seg09]
40 90.185791 0.000060 0.000060 -135.617828 2.228885 0.850567 90.185791
41 90.185791 0.000060 0.000060 -135.617828 2.228885 0.850567 90.185791
[L_rear_hand01]
40 101.696655 -8.392275 -7.654577 -12.874829 -36.868488 107.832764 102.329041
41 101.696655 -8.392275 -7.654577 -12.874829 -36.868488 107.832764 102.329041
[L_rear_hand02]
40 102.726799 -1.568258 5.773216 71.484581 71.816628 158.486160 102.900848
41 102.726799 -1.568258 5.773216 71.484581 71.816628 158.486160 102.900848
[L_rear_hand03]
40 104.552910 9.721220 -10.420293 -177.714203 -24.565960 -106.089035 105.519653
41 104.552910 9.721220 -10.420293 -177.714203 -24.565960 -106.089035 105.519653
